<svg width="40" height="40" viewBox="0 0 40 40" fill="none" xmlns="http://www.w3.org/2000/svg">
<circle cx="20" cy="20" r="20" fill="#2D333A"/>
<path d="M27.7182 25.5233C28.3825 25.5233 29.249 25.8555 29.8556 27.2674C29.9422 27.4612 30 27.6827 30 27.8765C30 30.2021 24.4833 32.3062 21.2773 32.4723C21.0462 32.4723 20.7863 32.5 20.5552 32.5C15.7895 32.5 11.3703 30.0637 9.08858 26.1323C8.0199 24.2774 7.5 22.2287 7.5 20.1523C7.5 17.7436 8.22208 15.335 9.63736 13.2586C10.7349 11.5975 12.8723 9.4103 16.6271 8.21982C17.5802 7.91528 19.2555 7.5 21.1617 7.5C23.0103 7.5 25.061 7.8876 26.8517 9.18881C29.3646 10.9884 29.8845 12.954 29.8845 14.2276C29.8845 14.7813 29.7978 15.1966 29.7112 15.4457C29.1335 17.4668 27.1983 19.0172 24.9454 19.3217C24.4255 19.3771 23.9923 19.4324 23.5879 19.4324C21.5372 19.4324 20.844 18.6019 20.844 17.6606C20.844 16.387 22.086 14.892 22.9814 14.892C23.0969 14.892 23.2125 14.9197 23.2991 14.9751C23.5302 15.1135 23.819 15.1689 24.0789 15.1689C24.1656 15.1689 24.2234 15.1689 24.31 15.1412C25.0321 15.0581 25.4076 14.5875 25.4076 14.0061C25.4076 12.9264 24.0789 11.459 21.1906 11.459C20.2664 11.459 19.1977 11.5975 17.9846 11.9574C15.4429 12.7049 14.0276 14.4491 13.3055 15.5288C12.3524 16.9131 11.8902 18.5188 11.8902 20.0969C11.8902 21.4535 12.2368 22.8101 12.93 24.0282C14.432 26.603 17.378 28.2087 20.5552 28.2087C20.7285 28.2087 20.8729 28.2087 21.0462 28.2087C25.1765 27.9873 26.1297 25.9939 27.0539 25.6063C27.1983 25.5786 27.4583 25.5233 27.7182 25.5233Z" fill="white"/>
</svg>
