<svg width="52" height="22" viewBox="0 0 52 22" fill="none" xmlns="http://www.w3.org/2000/svg">
<rect width="52" height="22" fill="black" fill-opacity="0"/>
<path d="M42.0728 4.67264C43.4028 4.67264 44.481 3.63401 44.481 2.3528C44.481 1.07159 43.4028 0.032959 42.0728 0.032959C40.7427 0.032959 39.6646 1.07159 39.6646 2.3528C39.6646 3.63401 40.7427 4.67264 42.0728 4.67264Z" fill="#373C46"/>
<path d="M40.2422 7.87215V21.0875C40.2422 21.8022 41.1902 21.9891 42.1383 21.9891C43.0863 21.9891 44.0343 21.8022 44.0343 21.0875V7.87215C44.0343 6.91563 43.0863 6.78369 42.1383 6.78369C41.2011 6.78369 40.2422 6.91563 40.2422 7.87215Z" fill="#373C46"/>
<path d="M48.208 1.08846V21.0875C48.208 21.8021 49.156 21.989 50.1041 21.989C51.0521 21.989 52.0001 21.8021 52.0001 21.0875V1.08846C52.0001 0.131934 51.0521 0 50.1041 0C49.1669 0 48.208 0.131934 48.208 1.08846Z" fill="#373C46"/>
<rect width="16.1383" height="15.7221" fill="black" fill-opacity="0" transform="translate(20.9766 6.27783)"/>
<path d="M20.9766 14.1389C20.9766 9.98298 24.2674 6.27783 29.0185 6.27783C33.7477 6.27783 37.1149 9.91701 37.1149 14.1169C37.1149 18.6357 33.3772 22 29.0621 22C24.2783 21.989 20.9766 18.2838 20.9766 14.1389ZM29.0076 18.7896C31.5357 18.7896 33.4317 16.6896 33.4317 14.1059C33.4317 11.5222 31.5357 9.47723 29.0076 9.47723C26.4795 9.47723 24.6161 11.5552 24.6161 14.1389C24.6161 16.7226 26.4795 18.7896 29.0076 18.7896Z" fill="#373C46"/>
<rect width="18.7971" height="21.967" fill="black" fill-opacity="0" transform="translate(0 0.0222168)"/>
<path d="M18.7971 17.9433C18.7971 19.9552 14.1442 21.9892 10.9078 21.9892C6.94132 21.9892 3.22548 19.8453 1.32942 16.393C0.435876 14.7878 0 12.9627 0 11.1377C0 9.01572 0.599329 6.89378 1.77619 5.07969C2.71333 3.62841 4.48952 1.69338 7.61693 0.659898C8.40151 0.39603 9.8181 0.0222168 11.4091 0.0222168C15.8768 0.0222168 18.6882 3.17764 18.6882 5.93726C18.6882 7.82831 17.1626 10.522 13.425 10.522C11.7142 10.522 11.1366 9.79633 11.1366 8.96075C11.1366 7.83931 12.1718 6.53096 12.9237 6.53096C13.2397 6.53096 13.4359 6.8498 14.0461 6.76185C14.6454 6.67389 14.9614 6.26709 14.9614 5.76135C14.9614 4.80483 13.8391 3.52946 11.4526 3.52946C10.6899 3.52946 9.79631 3.6614 8.76111 3.98024C6.63621 4.62891 5.47024 6.16814 4.84912 7.12467C4.06454 8.33406 3.67225 9.75235 3.67225 11.1487C3.67225 12.3471 3.96647 13.5455 4.54401 14.6009C5.79715 16.8658 8.25985 18.2841 10.9078 18.2841C14.5583 18.2841 15.5826 16.3051 16.3236 15.9862C17.6312 15.4035 18.7971 16.9977 18.7971 17.9433Z" fill="#373C46"/>
</svg>
