<svg width="112" height="112" viewBox="0 0 112 112" fill="none" xmlns="http://www.w3.org/2000/svg">
<path d="M112 56C112 61.522 111.221 66.8492 109.728 71.8515C102.91 95.1091 81.4191 112 56.0325 112C33.3078 112 13.6997 98.4223 4.93449 78.9327C1.75304 71.9814 0 64.1856 0 56C0 41.7077 5.32406 28.7146 14.0893 18.8399C24.3478 7.2761 39.3461 0 55.9675 0C82.458 0 104.663 18.4501 110.507 43.2019C111.481 47.2947 112 51.5824 112 56Z" fill="#252D35"/>
<path d="M112 56.0001C112 61.5221 111.221 66.8492 109.728 71.8516C102.91 95.1091 81.4191 112 56.0325 112C33.3078 112 13.6997 98.4223 4.93449 78.9328C1.75304 71.9815 0 64.1857 0 56.0001C0 41.7077 5.32406 28.7147 14.0893 18.84L110.507 43.137C111.481 47.2947 112 51.5824 112 56.0001Z" fill="#232930"/>
<path d="M109.728 71.8516C102.911 95.1091 81.4197 112 56.033 112C33.3084 112 13.7003 98.4223 4.93506 78.9328C33.7629 76.5291 77.3292 73.8005 109.728 71.8516Z" fill="#1D2328"/>
<path d="M89.1458 80.492C88.107 77.9584 88.8861 78.1533 86.0293 77.3737C89.016 77.1138 89.016 76.6591 89.1458 74.2554C89.86 76.5941 89.6003 76.9189 92.2623 77.3737C89.6652 77.8934 89.0809 77.7635 89.1458 80.492Z" fill="white"/>
<path d="M42.8522 14.6822C43.4365 13.188 42.982 13.318 44.6701 12.8632C42.9171 12.7333 42.9171 12.4734 42.8522 11.0442C42.4626 12.4085 42.5925 12.6034 41.0342 12.8632C42.5925 13.188 42.9171 13.1231 42.8522 14.6822Z" fill="white"/>
<path d="M43.1117 18.1254C43.3986 18.1254 43.6311 17.8927 43.6311 17.6057C43.6311 17.3186 43.3986 17.0859 43.1117 17.0859C42.8248 17.0859 42.5923 17.3186 42.5923 17.6057C42.5923 17.8927 42.8248 18.1254 43.1117 18.1254Z" fill="white"/>
<path d="M95.703 51.2577C96.1333 51.2577 96.4821 50.9086 96.4821 50.4781C96.4821 50.0475 96.1333 49.6985 95.703 49.6985C95.2727 49.6985 94.9238 50.0475 94.9238 50.4781C94.9238 50.9086 95.2727 51.2577 95.703 51.2577Z" fill="white"/>
<path d="M100.897 74.2555C101.328 74.2555 101.676 73.9065 101.676 73.4759C101.676 73.0453 101.328 72.6963 100.897 72.6963C100.467 72.6963 100.118 73.0453 100.118 73.4759C100.118 73.9065 100.467 74.2555 100.897 74.2555Z" fill="white"/>
<path d="M72.4594 97.2531C72.7462 97.2531 72.9788 97.0204 72.9788 96.7333C72.9788 96.4463 72.7462 96.2136 72.4594 96.2136C72.1725 96.2136 71.9399 96.4463 71.9399 96.7333C71.9399 97.0204 72.1725 97.2531 72.4594 97.2531Z" fill="white"/>
<path d="M84.9901 82.636C85.277 82.636 85.5095 82.4033 85.5095 82.1163C85.5095 81.8292 85.277 81.5966 84.9901 81.5966C84.7032 81.5966 84.4707 81.8292 84.4707 82.1163C84.4707 82.4033 84.7032 82.636 84.9901 82.636Z" fill="white"/>
<path d="M104.339 47.5547C104.912 47.5547 105.377 47.0893 105.377 46.5153C105.377 45.9412 104.912 45.4758 104.339 45.4758C103.765 45.4758 103.3 45.9412 103.3 46.5153C103.3 47.0893 103.765 47.5547 104.339 47.5547Z" fill="white"/>
<path d="M88.6261 65.9399C95.7032 42.6173 76.7444 19.4897 52.3316 22.0883C33.9571 24.0373 20.1925 40.5385 22.0104 59.3784C24.9322 89.7171 63.2394 101.021 82.393 77.6986C83.1073 76.7241 87.3925 70.1626 88.6261 65.9399Z" fill="#E73846"/>
<path d="M88.6268 46.0605C82.7184 45.8006 73.4338 45.2159 69.3433 43.9166C63.1752 41.9027 55.5787 32.4827 53.3062 32.2229C51.0987 31.963 49.8002 33.9769 44.2813 33.847C40.7103 33.782 38.308 30.144 37.0744 27.6104C31.2309 31.5083 26.686 37.0953 24.0889 43.7217C22.5955 47.5547 21.7515 51.7124 21.7515 56.0651C21.7515 58.209 21.9462 60.3528 22.3358 62.3667C23.5045 68.6034 26.3613 74.2554 30.4518 78.8029C35.0616 79.2577 40.7103 79.7124 43.697 79.3227C47.7874 78.8679 65.0581 79.6475 68.3694 80.3621C69.8628 80.6869 74.0831 81.3366 78.2384 81.9213C79.472 80.8169 80.6407 79.6475 81.7445 78.4131C85.7051 73.8656 88.497 68.2136 89.5358 62.0419C89.8604 60.093 90.0552 58.079 90.0552 56.0651C90.1202 52.557 89.6007 49.1788 88.6268 46.0605Z" fill="#EE4859"/>
<path d="M66.8751 62.5617C60.4473 61.2624 55.7725 56.2601 51.4224 53.7914C47.0722 51.3228 40.9041 52.0374 33.7621 49.4388C29.6716 47.9446 26.2954 45.4759 24.0879 43.5919C22.5945 47.4249 21.7505 51.5826 21.7505 55.9353C21.7505 58.0791 21.9453 60.223 22.3348 62.2369C23.6334 63.3413 25.4514 64.4457 28.1134 65.1603C35.2554 67.1743 48.2409 62.5617 56.8763 65.1603C62.3302 66.7845 73.8873 73.5408 81.6786 78.2833C85.6392 73.7357 88.4311 68.0838 89.4699 61.9121C82.0032 62.6917 70.9656 63.4063 66.8751 62.5617Z" fill="#F25868"/>
<path opacity="0.2" d="M30.1914 78.4132C33.243 79.1927 36.4244 79.5825 39.6708 79.5825C60.8372 79.5825 78.043 62.4317 78.043 41.1881C78.043 36.6405 77.2639 32.2229 75.7705 28.1951C84.2111 34.5617 88.821 42.5524 89.9247 52.3621C93.4957 87.1835 50.5786 102.84 30.1914 78.4132Z" fill="#A50010"/>
<path opacity="0.2" d="M39.6713 55.2205C47.4168 55.2205 53.6957 48.9379 53.6957 41.188C53.6957 33.4381 47.4168 27.1555 39.6713 27.1555C31.9259 27.1555 25.647 33.4381 25.647 41.188C25.647 48.9379 31.9259 55.2205 39.6713 55.2205Z" fill="#A50010"/>
<path d="M24.5426 42.8121C32.9694 42.8121 39.8006 35.9769 39.8006 27.5453C39.8006 19.1136 32.9694 12.2784 24.5426 12.2784C16.1159 12.2784 9.28467 19.1136 9.28467 27.5453C9.28467 35.9769 16.1159 42.8121 24.5426 42.8121Z" fill="#B8B4AC"/>
<path d="M26.296 26.051C27.2642 26.051 28.049 25.2656 28.049 24.2969C28.049 23.3282 27.2642 22.5428 26.296 22.5428C25.3278 22.5428 24.543 23.3282 24.543 24.2969C24.543 25.2656 25.3278 26.051 26.296 26.051Z" fill="#A29B91"/>
<path d="M39.8013 27.5453C39.8013 19.2297 33.1138 12.4084 24.8031 12.2784C22.9202 12.2784 21.1022 12.6682 19.479 13.3179C20.5178 12.9931 21.6216 12.8631 22.7254 12.8631C23.8941 12.8631 24.9978 13.058 26.0367 13.3829C25.9718 13.5777 25.9068 13.7077 25.9068 13.9026C25.9068 14.8121 26.621 15.5267 27.53 15.5267C28.1144 15.5267 28.6338 15.2019 28.8935 14.7471C28.8935 14.7471 28.9584 14.7471 28.9584 14.8121C28.6987 15.0719 28.5689 15.3968 28.5689 15.7866C28.5689 16.5661 29.2181 17.2158 29.9973 17.2158C30.192 17.2158 30.3868 17.1508 30.5816 17.0859C30.5816 17.1508 30.5816 17.1508 30.5816 17.2158C30.5816 17.9954 30.9062 18.71 31.4906 19.2297C31.2309 19.5545 31.0361 20.0093 31.0361 20.529C31.0361 21.6984 31.9451 22.6079 33.1138 22.6079C33.3735 22.6079 33.6332 22.5429 33.8929 22.478C33.8929 22.6079 33.828 22.7378 33.828 22.9327C33.828 23.3225 33.9578 23.7123 34.1526 23.9722C32.5944 24.0371 31.4257 25.2715 31.4257 26.8306C31.4257 28.3898 32.7242 29.6891 34.2825 29.6891C34.4773 29.6891 34.672 29.6891 34.8668 29.6242C34.6071 30.0139 34.4773 30.4037 34.4773 30.8585C34.4773 31.3782 34.672 31.8979 34.9967 32.2877C34.9318 32.2877 34.9318 32.2877 34.8668 32.2877C33.8929 32.2877 33.1138 33.0673 33.1138 34.0418C33.1138 34.5615 33.3086 35.0163 33.6981 35.3411C33.5033 35.6659 33.3735 35.9907 33.3735 36.3805C32.7891 36.5754 32.3996 37.0951 32.3996 37.7448C32.3996 37.9397 32.4645 38.1346 32.5294 38.3295C32.2697 38.7193 31.9451 39.1091 31.6204 39.4339C31.6204 39.4339 31.5555 39.4339 31.4906 39.4339C31.8802 38.9791 32.1399 38.3945 32.1399 37.7448C32.1399 36.3805 31.0361 35.3411 29.7375 35.3411C28.439 35.3411 27.3352 36.4455 27.3352 37.7448C27.3352 39.0441 28.3091 40.0186 29.5428 40.1485C29.348 40.4733 29.2181 40.7982 29.2181 41.188C29.2181 41.3179 29.2181 41.3829 29.2181 41.5128C29.2831 41.7726 29.348 42.0325 29.4778 42.2274C35.4512 39.9536 39.8013 34.3016 39.8013 27.5453Z" fill="#A29B91"/>
<path d="M65.9657 73.9955C65.6411 74.7101 65.2515 75.2948 64.7321 75.8146C64.862 73.2809 63.4985 70.8772 61.0312 69.7728C58.564 68.6684 55.837 69.318 54.1489 71.1371C54.2139 70.4224 54.3437 69.7078 54.6683 68.9932C56.0318 65.8749 59.6678 64.4457 62.7843 65.8099C65.9008 67.2392 67.3292 70.8772 65.9657 73.9955Z" fill="white"/>
<path d="M62.1022 71.6964L59.0103 70.3401L58.7756 70.8755L61.8676 72.2319L62.1022 71.6964Z" fill="white"/>
<path d="M67.4591 65.42C66.2904 68.0836 64.4075 70.2275 62.1351 71.7217L58.9536 70.2924C58.4991 67.5639 58.8238 64.7704 59.9924 62.0418C60.7716 60.2228 61.9403 58.5987 63.3037 57.2994C64.6023 56.065 66.0956 55.0906 67.7837 54.4409C68.433 56.13 68.7577 57.8841 68.6927 59.7031C68.6927 61.6521 68.3032 63.601 67.4591 65.42Z" fill="white"/>
<path d="M64.4073 64.3806C65.5189 64.3806 66.42 63.479 66.42 62.3667C66.42 61.2544 65.5189 60.3528 64.4073 60.3528C63.2957 60.3528 62.3945 61.2544 62.3945 62.3667C62.3945 63.479 63.2957 64.3806 64.4073 64.3806Z" fill="white"/>
<path d="M64.4079 63.9258C65.2685 63.9258 65.9661 63.2278 65.9661 62.3667C65.9661 61.5056 65.2685 60.8075 64.4079 60.8075C63.5473 60.8075 62.8496 61.5056 62.8496 62.3667C62.8496 63.2278 63.5473 63.9258 64.4079 63.9258Z" fill="#F25868"/>
<path d="M68.6917 59.768C67.7178 59.9629 66.6789 59.833 65.6401 59.3783C64.6662 58.9235 63.8222 58.2089 63.3027 57.3643C64.6013 56.13 66.0946 55.1555 67.7827 54.5059C68.432 56.13 68.7566 57.949 68.6917 59.768Z" fill="white"/>
<path d="M61.8101 70.0976C61.1608 71.5268 60.3817 72.6962 59.5376 73.4757C59.5376 72.3064 59.8622 70.8771 60.5115 69.4479C61.1608 68.0187 61.9399 66.8493 62.784 66.0697C62.784 67.1741 62.4593 68.6034 61.8101 70.0976Z" fill="white"/>
<path opacity="0.4" d="M74.4716 73.4756C74.4716 71.9814 74.2118 70.5522 73.6924 69.1229C72.329 69.7076 71.0953 70.4872 70.0565 71.4617C68.9527 72.5011 67.9788 73.8004 67.3295 75.3596C66.94 76.2691 66.6803 77.2436 66.4855 78.1531C64.9921 78.4779 63.6287 79.5174 62.9145 81.0765C62.6548 81.6612 62.5249 82.2459 62.5249 82.8306C63.4988 81.7911 64.9272 81.2714 66.3556 81.2714C66.3556 81.5313 66.4206 81.8561 66.4855 82.116L66.2907 82.5058L67.1348 82.8955C66.94 83.5452 66.875 84.1299 66.875 84.6496C67.2646 84.2598 67.6542 83.8051 67.9788 83.2204L68.8229 83.6102L69.0177 83.2204H69.0826C69.3423 83.0904 69.5371 82.8955 69.7319 82.7656C70.7058 83.8051 71.2901 85.1693 71.1603 86.5986C71.5498 86.2088 71.8745 85.689 72.1342 85.1044C72.7834 83.6102 72.6536 81.9211 71.8745 80.5568C72.4588 79.7772 72.9782 78.9976 73.3678 78.0881C74.1469 76.5939 74.4716 75.0348 74.4716 73.4756Z" fill="#A50010"/>
<g opacity="0.4">
<path opacity="0.4" d="M61.617 71.5268C56.228 85.0395 41.2297 93.2901 25.2575 88.4827L23.6344 87.898C23.1149 87.7031 22.5306 87.4433 22.0112 87.1834C8.44131 80.492 8.50624 61.9119 18.1155 56.3249C21.4268 54.311 25.712 53.7913 29.8674 55.4154C37.2042 58.4688 37.399 68.5384 31.4257 71.3319C28.2442 72.8261 25.3225 71.3319 25.3874 71.3319C23.6993 70.6173 22.9202 68.7333 23.6344 67.0442C24.3486 65.3551 26.2315 64.5755 27.9196 65.2901C28.1793 65.4201 28.6987 65.8098 29.1532 65.2252C29.2181 65.1602 29.2181 65.0303 29.2831 64.9653C29.8674 63.601 29.4129 61.5871 27.5949 60.6776C23.2448 58.7936 19.0245 61.1323 17.5312 64.3156C13.7004 72.5013 18.4402 81.5314 25.1926 84.0651C25.2575 84.0651 27.4002 84.9096 27.2703 84.9096C27.4002 84.9746 29.348 85.4943 29.4129 85.4943C40.97 88.4827 54.1503 82.5709 59.5393 70.5523C59.799 69.9676 60.4483 69.7078 61.0326 69.9676C61.552 70.3574 61.8118 70.9421 61.617 71.5268Z" fill="white"/>
</g>
</svg>
