<svg width="242" height="193" viewBox="0 0 242 193" fill="none" xmlns="http://www.w3.org/2000/svg">
<path d="M241.909 84C241.909 151.931 188.84 193 120.909 193C52.9777 193 0.908691 168.931 0.908691 101C0.908691 33.069 52.9777 4 120.909 4C188.84 4 228.909 11 241.909 84Z" fill="url(#paint0_linear)"/>
<path fill-rule="evenodd" clip-rule="evenodd" d="M98.9326 69.839C104.92 69.839 110.52 68.1835 115.292 65.3077C118.915 69.674 124.398 72.4573 130.537 72.4573C136.94 72.4573 142.632 69.4282 146.241 64.7328C148.354 66.3204 150.98 67.2614 153.828 67.2614C158.808 67.2614 163.115 64.3818 165.172 60.1982C173.989 58.2291 180.576 50.3988 180.576 41.0391C180.576 30.5867 172.361 22.0417 162 21.4369C160.705 9.63867 150.65 0.457153 138.438 0.457153C129.358 0.457153 121.47 5.53284 117.489 12.986C112.278 9.22229 105.866 7.00256 98.9326 7.00256C81.478 7.00256 67.3286 21.069 67.3286 38.4208C67.3286 55.7726 81.478 69.839 98.9326 69.839Z" fill="#5DAEF8"/>
<path d="M133.534 47.9688C134.42 47.9688 135.575 48.4206 136.384 50.3409C136.499 50.6044 136.576 50.9057 136.576 51.1692C136.576 54.332 129.221 57.1936 124.946 57.4195C124.638 57.4195 124.291 57.4572 123.983 57.4572C117.629 57.4572 111.737 54.1438 108.694 48.7971C107.269 46.2744 106.576 43.4882 106.576 40.6642C106.576 37.3885 107.539 34.1127 109.426 31.2888C110.889 29.0297 113.739 26.0552 118.746 24.4361C120.016 24.0219 122.25 23.4572 124.792 23.4572C127.257 23.4572 129.991 23.9843 132.378 25.7539C135.729 28.2013 136.422 30.8747 136.422 32.6067C136.422 33.3597 136.307 33.9245 136.191 34.2634C135.421 37.012 132.841 39.1205 129.837 39.5347C129.144 39.61 128.566 39.6853 128.027 39.6853C125.292 39.6853 124.368 38.5557 124.368 37.2755C124.368 35.5435 126.024 33.5103 127.218 33.5103C127.372 33.5103 127.526 33.548 127.642 33.6233C127.95 33.8115 128.335 33.8868 128.681 33.8868C128.797 33.8868 128.874 33.8868 128.99 33.8492C129.952 33.7362 130.453 33.0961 130.453 32.3054C130.453 30.837 128.681 28.8414 124.83 28.8414C123.598 28.8414 122.173 29.0297 120.556 29.5192C117.167 30.5358 115.28 32.9079 114.317 34.3763C113.046 36.2589 112.43 38.4428 112.43 40.5889C112.43 42.4339 112.892 44.2789 113.816 45.9356C115.819 49.4372 119.747 51.6211 123.983 51.6211C124.214 51.6211 124.407 51.6211 124.638 51.6211C130.145 51.3198 131.416 48.6089 132.648 48.0817C132.841 48.0441 133.187 47.9688 133.534 47.9688Z" fill="white"/>
<ellipse cx="126.052" cy="89.4571" rx="6.37505" ry="6.36863" fill="#5DAEF8"/>
<ellipse cx="107.096" cy="104.035" rx="3.58085" ry="3.57725" fill="#5DAEF8"/>
<path d="M163.473 147.492C163.473 147.492 157.714 139.96 158.108 140.091C161.13 141.164 172.319 144.58 169.801 138.077C169.429 137.113 168.838 135.996 168.027 134.858C165.378 131.179 160.429 127.413 153.203 128.508C152.831 128.573 152.568 128.135 152.809 127.829C155.765 123.997 174.684 116.07 185.742 128.595C187.143 130.194 188.435 132.121 189.53 134.42C199.012 154.237 171.618 159.251 163.473 147.492Z" fill="#374552"/>
<path opacity="0.1" d="M64.4111 177.688C64.4111 177.688 66.4913 181.192 93.6872 180.119C120.905 179.024 150.685 176.265 161.414 174.863C172.144 173.462 180.706 171.119 175.297 167.112C169.889 163.105 146.306 160.981 146.306 160.981C146.306 160.981 52.5867 169.674 64.4111 177.688Z" fill="#010101"/>
<path d="M66.0969 140.025C66.0969 140.025 55.7835 143.179 53.3748 144.974C50.6815 145.062 51.9515 139.675 51.9515 139.675C51.9515 139.675 60.6008 126.822 63.4474 126.384C66.294 125.946 75.9943 125.595 80.9649 128.661C85.9355 131.727 66.0969 140.025 66.0969 140.025Z" fill="#374552"/>
<path d="M125.197 130.172C125.197 130.172 134.831 129.559 140.962 130.566C147.094 131.573 158.261 134.88 162.421 140.967C166.582 147.032 170.085 152.069 169.209 159.382C168.334 166.674 163.91 170.769 156.531 172.411C149.152 174.053 139.386 174.119 139.386 174.119L120.138 168.973L119.372 137.639L125.197 130.172Z" fill="#415160"/>
<path d="M134.109 178.783C133.212 178.739 132.314 178.63 131.438 178.476C135.62 175.192 135.051 173.002 135.051 173.002C135.051 173.002 131.635 173.396 131.723 171.404C131.788 169.389 136.474 169.98 136.606 168.688C136.693 167.878 135.686 166.499 134.941 165.579C135.292 165.426 135.774 165.338 136.54 165.47C141.73 166.499 143.394 169.564 143.613 171.163C143.832 172.761 140.328 179.002 134.109 178.783Z" fill="#FEFEFE"/>
<path d="M136.583 168.645C136.452 169.937 131.766 169.345 131.7 171.36C131.635 173.374 135.029 172.958 135.029 172.958C135.029 172.958 135.598 175.148 131.416 178.433C126.16 177.425 121.409 174.382 121.409 174.382L125.197 163.061C125.197 163.061 130.386 166.127 132.51 166.302C133.934 166.411 134.218 165.82 134.919 165.513C135.685 166.455 136.671 167.835 136.583 168.645Z" fill="#415160"/>
<path d="M112.825 130.544C112.825 130.544 115.737 128.267 119.46 128.332C123.182 128.398 126.357 129.186 129.62 130.544C126.971 131.902 126.182 132.033 125.416 132.865C129.598 132.843 132.598 134.661 132.598 134.661C132.598 134.661 126.336 137.42 125.525 138.449C129.686 139.631 133.496 140.945 133.846 145.543C129.883 145.324 129.182 145.105 127.168 146.025C129.817 147.733 128.876 147.733 130.562 148.324C129.97 150.58 127.978 152.835 126.817 153.295C130.036 155.2 132.029 157.083 132.16 159.492C129.532 159.207 128.131 159.711 128.131 159.711C128.131 159.711 129.97 159.776 130.102 162.119C127.452 162.842 126.292 163.652 126.292 163.652C126.292 163.652 129.226 164.462 128.678 169.564C126.029 168.338 124.233 169.082 124.233 169.082C124.233 169.082 124.058 173.177 127.146 172.958C124.759 175.323 118.387 177.162 113.701 175.63C108.993 174.075 108.993 171.338 108.993 171.338L115.234 162.185L112.825 130.544Z" fill="#FEFEFE"/>
<path d="M123.817 164.747C122.218 166.324 119.065 166.959 115.014 166.324C116.065 167.747 117.379 175.652 117.379 175.652L110.81 171.557L116.087 176.462L110.876 175.652L105.117 172.98L106.584 174.469C106.584 174.469 105.555 175.061 103.059 175.936C100.54 176.812 97.5406 175.652 92.132 174.097C73.454 179.768 67.6075 178.411 64.3886 177.688C61.1698 176.966 60.1625 174.25 59.3523 172.104C55.2138 170.55 53.046 165.119 53.0241 161.682C53.0022 158.791 54.6664 158.288 57.3816 157.149C57.8853 156.93 58.4327 156.711 59.0239 156.426C62.7245 154.675 65.8119 152.091 66.6878 150.47C67.5637 148.872 65.9871 145.828 65.8995 144.295C65.7462 141.514 65.8995 138.996 67.082 137.573C68.2644 136.15 71.3519 132.909 76.7166 130.522C82.0813 128.135 88.322 126.712 93.6648 127.15C99.0077 127.588 106.058 132.033 106.058 132.033L123.094 145.39C123.094 145.39 123.138 153.58 122.131 155.682C122.788 155.463 125.547 159.623 125.547 159.623L121.255 160.105L125.656 160.915L121.255 162.798C121.255 162.842 122.7 163.521 123.817 164.747Z" fill="#415160"/>
<path d="M107.176 169.499C102.468 170.243 100.278 170.922 100.278 170.922L105.139 173.002L106.606 174.491C106.606 174.491 105.577 175.082 103.081 175.958C100.563 176.834 97.563 175.674 92.1545 174.119C73.4764 179.79 67.6299 178.433 64.4111 177.71C61.1923 176.987 60.185 174.272 59.3748 172.126C55.2363 170.572 53.0685 165.141 53.0466 161.703C53.0247 158.813 54.6889 158.309 57.4041 157.171C58.2143 157.061 59.6814 156.777 62.2433 156.032C67.0168 154.631 72.1626 150.448 73.1042 148.193C74.0457 145.938 74.5932 142.5 75.6004 140.836C76.6077 139.171 78.5346 135.996 80.0455 135.69C81.5564 135.383 81.8191 134.967 81.8191 136.653C81.8191 138.361 81.3593 142.609 80.2207 144.974C79.082 147.339 78.1405 155.288 80.6805 157.215C83.2425 159.141 86.8116 160.149 93.753 159.579C100.694 159.01 106.76 159.93 109.212 162.601C107.833 163.674 107.395 164.003 107.395 164.003C107.395 164.003 109.387 165.119 110.198 167.09C106.431 166.521 104.263 167.002 103.037 167.309C105.643 168.338 106.716 168.601 107.176 169.499Z" fill="#FEFEFE"/>
<path d="M63.0972 158.375C64.3672 158.879 65.7467 160.324 64.6737 162.82C63.6008 165.316 62.3965 166.849 60.2725 167.09C58.1485 167.331 56.5719 166.608 55.1486 166.324C53.7253 166.039 53.3311 165.294 52.8932 162.667C52.4553 160.039 53.5063 158.616 55.5427 158.068C55.5427 159.645 61.8271 157.871 63.0972 158.375Z" fill="#010101"/>
<path d="M59.8345 166.652C59.8345 166.652 60.1629 170.112 61.63 171.557C63.0971 173.002 67.7831 174.557 72.1405 173.878" stroke="#010101" stroke-width="1.53278" stroke-miterlimit="10" stroke-linecap="round"/>
<path d="M61.6299 171.579C61.6299 171.579 60.973 172.236 59.3745 172.126" stroke="#010101" stroke-width="1.53278" stroke-miterlimit="10" stroke-linecap="round"/>
<path d="M83.0669 149.135C83.1983 149.31 85.1033 151.981 88.3441 151.85C90.9279 151.74 92.4607 149.967 92.7234 149.66" stroke="#010101" stroke-width="1.53278" stroke-miterlimit="10" stroke-linecap="round"/>
<path d="M66.8413 148.653C67.3668 148.806 67.9362 148.872 68.5712 148.85C71.155 148.74 72.6878 146.967 72.9505 146.66" stroke="#010101" stroke-width="1.53278" stroke-miterlimit="10" stroke-linecap="round"/>
<path d="M175.647 171.36C173.808 172.871 169.538 172.499 165.443 171.645C166.472 169.98 167.896 167.572 167.896 166.915C167.918 165.908 165.356 167.944 164.808 165.711C164.283 163.477 169.867 163.083 169.867 163.083L168.772 160.017C170.348 159.667 171.465 159.076 172.494 159.142C173.655 159.229 178.1 160.39 178.998 161.988C179.939 163.587 179.654 168.054 175.647 171.36Z" fill="#FEFEFE"/>
<path d="M167.896 166.937C167.896 167.594 166.473 170.002 165.443 171.667C160.539 170.659 155.875 168.951 155.875 168.951L161.633 158.572C165.575 159.448 166.078 160.433 168.049 160.149C168.312 160.105 168.553 160.061 168.794 160.017L169.889 163.083C169.889 163.083 164.283 163.477 164.83 165.711C165.356 167.966 167.896 165.93 167.896 166.937Z" fill="#415160"/>
<path d="M119.963 134.551C121.146 135.712 126.313 136.96 126.598 138.12C126.883 139.281 127.123 142.894 125.394 144.952C123.664 147.011 121.43 148.193 120.686 148.959C119.941 149.726 114.489 159.054 113.131 159.141C111.774 159.229 108.27 158.353 105.927 146.441C103.584 134.551 102.227 130.062 104.154 126.362C106.081 122.727 116.46 131.091 119.963 134.551Z" fill="#505F6D"/>
<path d="M185.742 128.595C176.677 127.282 170.765 131.924 168.027 134.858C165.378 131.179 160.429 127.413 153.203 128.508C152.831 128.573 152.568 128.135 152.809 127.829C155.765 123.997 174.684 116.07 185.742 128.595Z" fill="white"/>
<defs>
<linearGradient id="paint0_linear" x1="121.409" y1="4" x2="121.409" y2="193" gradientUnits="userSpaceOnUse">
<stop stop-color="#DDE0E5"/>
<stop offset="1" stop-color="#DDE0E5"/>
</linearGradient>
</defs>
</svg>
