<svg width="13" height="14" viewBox="0 0 13 14" fill="none" xmlns="http://www.w3.org/2000/svg">
<rect width="13" height="14" rx="3" fill="#DDE0E5"/>
<path d="M7.5498 8.86328C7.5498 8.59635 7.47493 8.38477 7.3252 8.22852C7.17871 8.06901 6.92806 7.92253 6.57324 7.78906C6.21842 7.6556 5.91243 7.52376 5.65527 7.39355C5.39811 7.26009 5.17676 7.10872 4.99121 6.93945C4.80892 6.76693 4.66569 6.5651 4.56152 6.33398C4.46061 6.10286 4.41016 5.8278 4.41016 5.50879C4.41016 4.95866 4.58594 4.50781 4.9375 4.15625C5.28906 3.80469 5.75618 3.59961 6.33887 3.54102V2.49609H7.12012V3.55566C7.69629 3.63704 8.14714 3.87793 8.47266 4.27832C8.79818 4.67546 8.96094 5.19141 8.96094 5.82617H7.5498C7.5498 5.43555 7.46842 5.14421 7.30566 4.95215C7.14616 4.75684 6.93132 4.65918 6.66113 4.65918C6.39421 4.65918 6.1875 4.73568 6.04102 4.88867C5.89453 5.03841 5.82129 5.24674 5.82129 5.51367C5.82129 5.76107 5.8929 5.95964 6.03613 6.10938C6.17936 6.25911 6.44466 6.41211 6.83203 6.56836C7.22266 6.72461 7.54329 6.87272 7.79395 7.0127C8.0446 7.14941 8.25618 7.30566 8.42871 7.48145C8.60124 7.65397 8.73307 7.85254 8.82422 8.07715C8.91536 8.2985 8.96094 8.55729 8.96094 8.85352C8.96094 9.4069 8.78841 9.85612 8.44336 10.2012C8.09831 10.5462 7.62305 10.7497 7.01758 10.8115V11.7832H6.24121V10.8164C5.57389 10.7448 5.05632 10.5088 4.68848 10.1084C4.32389 9.70475 4.1416 9.16927 4.1416 8.50195H5.55273C5.55273 8.88932 5.64388 9.18717 5.82617 9.39551C6.01172 9.60059 6.27702 9.70312 6.62207 9.70312C6.90853 9.70312 7.13477 9.62826 7.30078 9.47852C7.4668 9.32552 7.5498 9.12044 7.5498 8.86328Z" fill="white"/>
</svg>
