<svg xmlns="http://www.w3.org/2000/svg" width="34.371" height="33.926" viewBox="0 0 34.371 33.926">
  <g id="Group_34" transform="translate(-1098 -360)">
    <g id="Group_33" transform="translate(40 -2)">
      <path id="popin" d="M21.273,11.413ZM39.8,24.564l-3.257-3.3L36.6,36.54l-27.166.015.027-27.1,15.2-.066L21.267,6H9.393A3.394,3.394,0,0,0,6,9.393V36.533a3.394,3.394,0,0,0,3.393,3.393H36.533a3.394,3.394,0,0,0,3.393-3.393Z" transform="translate(1052 356)" fill="#50555d"/>
    </g>
    <path id="forward" d="M26.838,10.941l-9.1,8.757V14.393c-2.757,0-9.777.061-9.777,7.28A7.824,7.824,0,0,0,14.2,29.334,11.7,11.7,0,0,1,4.047,17.761c0-11.034,11.788-11.127,13.688-11.127V2.118l9.1,8.823Z" transform="translate(1105.533 358.32)" fill="#50555d"/>
  </g>
</svg>
