<svg id="Layer_1" data-name="Layer 1" xmlns="http://www.w3.org/2000/svg" xmlns:xlink="http://www.w3.org/1999/xlink" viewBox="0 0 119.41 103.6"><defs><style>.cls-1{fill:none;}.cls-2{fill:#232426;}.cls-3{clip-path:url(#clip-path);}.cls-4{fill:#f0d001;}</style><clipPath id="clip-path"><rect class="cls-1" x="-272.98" y="142.24" width="1280.15" height="75"/></clipPath></defs><title>icon-errorpage-secureconnectionfailed</title><path class="cls-2" d="M61.51,72.35a2.77,2.77,0,0,0-2.43-2.95,3.51,3.51,0,0,0-4,1.73,2.82,2.82,0,0,0,.7,3.66c1.46.93,1.51,2.21,1.42,3.65h0A9.8,9.8,0,0,0,57.13,80a1.13,1.13,0,0,0,.31.86,1.16,1.16,0,0,0,.85.35,1.07,1.07,0,0,0,.78-.33,1.1,1.1,0,0,0,.3-.79c.08-1,.11-2.07.12-3.11h0a1.91,1.91,0,0,1,.79-1.75,3.06,3.06,0,0,0,1.23-2.86Zm-4,24.45C52.3,96.39,47,96.23,42.11,94a20.87,20.87,0,0,1-9.47-7.65,19.87,19.87,0,0,1-2.8-8.73c-.3-3-1-5.89-1.07-8.9-.09-2.29-.35-4.61-.5-6.9a45.7,45.7,0,0,1,0-9.5c.22-1.51-.08-3.08.74-4.53a1.67,1.67,0,0,1,1.52-1,51.25,51.25,0,0,1,6.32,0c2.52.09,5.07-.27,7.61-.27h0A4.27,4.27,0,0,1,48,48a22.7,22.7,0,0,0,6.57,5.07c3.49,1.86,7.26.72,10.35-2.53,1.12-1.17,2.57-2.09,3.1-3.78h0a1,1,0,0,1,1-.45A47.06,47.06,0,0,0,75.68,46a2.32,2.32,0,0,0,2.19-1.78c.73-2.73,2.27-5.14,3.07-7.82C82,33,83.08,29.48,82.14,26c-1.36-5-4.2-9.19-9.76-10.24a14.38,14.38,0,0,0-14.45,5.15,81.05,81.05,0,0,0-5.82,8.52c-1.89,2.9-4,5.62-6,8.46h0a18.6,18.6,0,0,1-3.1,4,3.09,3.09,0,0,1-2.09.86c-.83,0-1.79.13-2.24-.73a2.4,2.4,0,0,1,.54-2.58A39.57,39.57,0,0,1,42.69,35c2.25-2.28,1.68-4.41.18-6.73-1.4-2.16-1.14-5,.6-6.34a9.2,9.2,0,0,0,1.7-1.77,45.19,45.19,0,0,1,7.29-7.34c1.7-1.33,3.5-2.5,5.28-3.71a14.41,14.41,0,0,1,5.38-1.77,25.59,25.59,0,0,1,13.19.81A18.5,18.5,0,0,1,89.12,21.23c.72,2.45,1.11,5,2,7.39.6,1.55-.15,3.25-.33,4.88-.52,4.84-2.79,9.06-4.76,13.39a4.48,4.48,0,0,0-.54,2.61c.39,3.07,1.49,6,2.07,9s1.19,5.74,1.46,8.64h0a28.56,28.56,0,0,1-.87,11.45A19.56,19.56,0,0,1,87,80.88c-1.4,3-2.58,6-5.29,8.18-1.6,1.28-3,2.8-4.56,4.16-2.23,2-5.1,2.45-7.84,2.81-3.87.52-7.83.54-11.81.77Z"/><path class="cls-2" d="M58.51,71.36a.88.88,0,0,1,.93,1c-.12.76-.26,1.58-1.31,1.58h0a1,1,0,0,1-.78-.27,1,1,0,0,1-.29-.78,1.44,1.44,0,0,1,.39-1.1,1.42,1.42,0,0,1,1.07-.46Z"/><g class="cls-3"><polygon class="cls-4" points="-75.01 312.49 -127.22 261.31 85.28 53 137.5 104.18 -75.01 312.49"/><polygon class="cls-4" points="116.69 312.49 64.47 261.31 276.98 53 329.2 104.18 116.69 312.49"/></g></svg>