<svg id="Layer_1" data-name="Layer 1" xmlns="http://www.w3.org/2000/svg" xmlns:xlink="http://www.w3.org/1999/xlink" viewBox="0 0 119.41 103.6"><defs><style>.cls-1{fill:none;}.cls-2{fill:#232426;}.cls-3{clip-path:url(#clip-path);}.cls-4{fill:#f0d001;}</style><clipPath id="clip-path"><rect class="cls-1" x="-133.57" y="142.24" width="1280.15" height="75"/></clipPath></defs><title>icon-errorpage-servernotfound</title><path class="cls-1" d="M93.6,82.31c.26-.35.61-.79.18-1.23s-1-.09-1.41.26c-.88.53-1.15,1.85-2.46,2.11-.71-1.76,1.66-2.46,1.22-4-1.31-.18-1.4,1.66-2.72,1.58A3.27,3.27,0,0,1,89,78.62c1.15-2,1.06-2.29-.88-4.05-.09.53-.35,1.15-.17,1.32.53.79.44,1.23-.27,1.76s-.7,1.49-1.49,1.58c-1.41.09-.53-1.32-.88-1.85-.17-.17-.44-.35-.61-.52-.53-.44-.44-1-.09-1.5a9.84,9.84,0,0,1,1.23-1.49c.79-.62.88-1.23,0-1.67-.44-.26-.71-.88-1.41-.88a7,7,0,0,1-2.29,4.4c-1.76-2.11-1.14-4.14,0-6.33-1.32.44-1.49,1.32-1.93,1.93s-.7,1.14-1.41,1.14c-1.14,0-.26-1.14-.7-1.49-.88-.7-.44-1.49-.18-2.29s.79-1.4.35-2.37c-1.32.18-1.23,1.49-1.93,2.2-.26.26-.44.61-.88.53s-.44-.53-.44-.88c.09-.62.53-1.23.27-1.85-1.76.35-1.85.27-1.5-1.14.09-.44.53-.79.09-1.23-1.23.09-1.32,1.93-2.64,1.85-.61-1.41,1.23-2.29.53-3.61-1.32.53-1.32,2.55-3.25,2.46A6.93,6.93,0,0,1,71,61c.88-.88,1.15-1.67-.35-2.46-.61,1-1.23,1.93-1.84,3-.44.61-.71,1.31-1.5,1.58s-.79-.18-.53-.7c.71-1.06,2-1.76,1.5-4-.79,1.49-1.75,2.46-1.58,3.86h0a4.17,4.17,0,0,0-2.9.35,4.06,4.06,0,0,0,1.67,1.94,64.62,64.62,0,0,1,6.24,5.8,243.91,243.91,0,0,0,20,19c.88-.44,1.15-1.32,1.59-2.11s.88-1.58-.62-1.67c-.7-.09-.79-.7-.44-1.23C92.63,83.63,93.16,83,93.6,82.31Z"/><path class="cls-2" d="M100.45,82.74c-1.23-.52-2.37-.26-2.46-1.66-.09-.44-.8-.71-1.15-1.14a104.83,104.83,0,0,0-7.91-7.57c-4.13-3.43-7.82-7.47-11.69-11.25-.88-.88-1.76-2-3-2.37-1.58-.44-2.37-1.67-3.34-2.73a21,21,0,0,1-1.4-1.67c-1-1.05-1.41-.52-1.85.36a4.8,4.8,0,0,0-.35,1c-.53,1.32-1.41,2.55-2.81,2.73-1.23.17-1.67-1.5-2.64-2.2-.53-.36-.35-1,.09-1.41a17.2,17.2,0,0,0,1.76-1.76,27.37,27.37,0,0,0,5.8-9.58c2-5.8,2.11-11.51-.7-17.14-.35-.7-.53-1.49-.88-2.28a7.5,7.5,0,0,0-1.23-2.2c-2.81-2.64-5.63-5.54-9.14-7-6.16-2.64-12.57-4-19.34-2.47a22.15,22.15,0,0,0-13,7.65c-7.82,9.23-9,26.28.35,35.51,4.57,4.57,9.76,7,16,6.77A40,40,0,0,0,58.26,58c1.06-.53,1.76-.53,2.46.35a7.62,7.62,0,0,0,1.32,1c1.06.61,1.32,1.23.62,2.46-1.24,2-1,2.63.79,4.22,2.81,2.46,5.53,4.92,8.35,7.29,3.16,2.64,5.8,5.8,8.7,8.7s6.24,4.75,8.88,7.74A15.2,15.2,0,0,0,92.1,91.8a63,63,0,0,0,8.35-9.06ZM48.77,46.79a22.93,22.93,0,0,1-10,3.61c-1.58.09-3.52,0-4.49-2.46,2.64.61,5,1.49,7.48.53,2.28-.88,4.57-1.5,6.94-2.29,0,.17.09.44.09.61ZM60.46,32.47c-1.32-5.63-5.27-9.23-9.58-12.4a11.59,11.59,0,0,0-8.44-1.67,45.89,45.89,0,0,0-10.2,3.17,7.4,7.4,0,0,0-3.69,3.95c-.26.53-.35,1.5-1.23,1.06s-.7-1.15-.35-1.94a11.51,11.51,0,0,1,6.68-5.8c1.5-.53,3.08-.79,4.49-1.32,3.34-1.23,6.68-1,10-.35a8.92,8.92,0,0,1,6.06,3.43,5.92,5.92,0,0,0,1.05,1c4.31,3.51,6.16,8.35,7.21,13.53.09.27,0,.44-.17,1h0A6.19,6.19,0,0,1,60.46,32.47ZM92.63,85.56c1.5.09,1,1,.62,1.67s-.71,1.67-1.59,2.11a243.91,243.91,0,0,1-20-19,64.62,64.62,0,0,0-6.24-5.8,4.06,4.06,0,0,1-1.67-1.94,4.17,4.17,0,0,1,2.9-.35c-.17-1.4.79-2.37,1.58-3.86.53,2.2-.79,2.9-1.5,4-.26.52-.17,1,.53.7s1.06-1,1.5-1.58c.61-1.06,1.23-2,1.84-3,1.5.79,1.23,1.58.35,2.46a6.93,6.93,0,0,0-2.46,3.69c1.93.09,1.93-1.93,3.25-2.46.7,1.32-1.14,2.2-.53,3.61,1.32.08,1.41-1.76,2.64-1.85.44.44,0,.79-.09,1.23-.35,1.41-.26,1.49,1.5,1.14.26.62-.18,1.23-.27,1.85,0,.35,0,.7.44.88s.62-.27.88-.53c.7-.71.61-2,1.93-2.2.44,1-.17,1.67-.35,2.37s-.7,1.59.18,2.29c.44.35-.44,1.49.7,1.49.71,0,1.06-.61,1.41-1.14s.61-1.49,1.93-1.93c-1.14,2.19-1.76,4.22,0,6.33a7,7,0,0,0,2.29-4.4c.7,0,1,.62,1.41.88.88.44.79,1,0,1.67a9.84,9.84,0,0,0-1.23,1.49c-.35.53-.44,1.06.09,1.5.17.17.44.35.61.52.35.53-.53,1.94.88,1.85.79-.09.88-1.14,1.49-1.58s.8-1,.27-1.76c-.18-.17.08-.79.17-1.32,1.94,1.76,2,2,.88,4.05a3.27,3.27,0,0,0-.61,2.46c1.32.08,1.41-1.76,2.72-1.58.44,1.49-1.93,2.19-1.22,4,1.31-.26,1.58-1.58,2.46-2.11.44-.35.88-.79,1.41-.26s.08.88-.18,1.23c-.44.7-1,1.32-1.41,2C91.84,84.86,91.93,85.47,92.63,85.56Z"/><g class="cls-3"><polygon class="cls-4" points="-125.6 312.49 -177.82 261.31 34.69 53 86.91 104.18 -125.6 312.49"/><polygon class="cls-4" points="64.4 312.49 12.18 261.31 224.69 53 276.91 104.18 64.4 312.49"/></g></svg>