<svg id="Layer_1" data-name="Layer 1" xmlns="http://www.w3.org/2000/svg" xmlns:xlink="http://www.w3.org/1999/xlink" viewBox="0 0 1280.15 75"><defs><style>.cls-1{fill:none;}.cls-2{clip-path:url(#clip-path);}.cls-3{fill:#fedc00;}.cls-4{fill:#f0d001;}</style><clipPath id="clip-path"><rect class="cls-1" width="1280.15" height="75"/></clipPath></defs><title>icon-errorpage-thisconnectionisuntrusted</title><g class="cls-2"><rect class="cls-3" width="1280.15" height="75"/><polygon class="cls-4" points="7.97 170.25 -44.24 119.06 168.26 -89.25 220.48 -38.06 7.97 170.25"/><polygon class="cls-4" points="197.97 170.25 145.76 119.06 358.26 -89.25 410.48 -38.06 197.97 170.25"/><polygon class="cls-4" points="389.67 170.25 337.45 119.06 549.96 -89.25 602.18 -38.06 389.67 170.25"/><polygon class="cls-4" points="579.67 170.25 527.46 119.06 739.96 -89.25 792.18 -38.06 579.67 170.25"/><polygon class="cls-4" points="773.96 170.25 721.74 119.06 934.25 -89.25 986.46 -38.06 773.96 170.25"/><polygon class="cls-4" points="963.96 170.25 911.74 119.06 1124.25 -89.25 1176.46 -38.06 963.96 170.25"/><polygon class="cls-4" points="1149.62 170.25 1097.41 119.06 1309.91 -89.25 1362.13 -38.06 1149.62 170.25"/></g></svg>