<svg id="Layer_1" data-name="Layer 1" xmlns="http://www.w3.org/2000/svg" xmlns:xlink="http://www.w3.org/1999/xlink" viewBox="0 0 119.41 103.6"><defs><style>.cls-1{fill:none;}.cls-2{fill:#232426;}.cls-3{clip-path:url(#clip-path);}.cls-4{fill:#f0d001;}</style><clipPath id="clip-path"><rect class="cls-1" x="5.84" y="142.24" width="1280.15" height="75"/></clipPath></defs><title>icon-errorpage-unabletoconnect</title><path class="cls-2" d="M77.77,39.1a38.09,38.09,0,0,1,3.84-2.23,1.93,1.93,0,0,0,1.12-1.62V33.89a.73.73,0,0,1,.49-1h.13l1.48-.75c.49-.24.62-.12.87.37.24.75.74.87,1.48.5l.5-.25a18.6,18.6,0,0,0,3-1.86,2.93,2.93,0,0,1,1-.62,1,1,0,0,0,.62-1c0-.25.13-.49.37-.49.62-.25,1.24-.5,2-.75a.73.73,0,0,1,1,1L94.12,32.4a40.78,40.78,0,0,1-4.83,8.8,43.31,43.31,0,0,1-10.9,10.4c-1.11.75-2.35,1.49-3.59,2.24a71.36,71.36,0,0,1-6.94,3.34A41,41,0,0,0,62.77,60a3.56,3.56,0,0,1-1.23.49,4.18,4.18,0,0,0-3,1.74,6.07,6.07,0,0,1-1.24,1.24,3.27,3.27,0,0,0-.86,1.73c-.37,3.1-.62,6.19-.75,9.42-.12,2,0,4.09,0,6.07s0,4-.12,6a.47.47,0,0,0,.12.37,4.2,4.2,0,0,0,1.86-2.73A29.69,29.69,0,0,1,59.06,78,31.67,31.67,0,0,1,66,66.84a33.62,33.62,0,0,1,5.2-4.21c.75-.49,1-.37,1,.49a22.32,22.32,0,0,1-10.4,20.32c-1.37.75-2.61,1.73-3.85,2.48-.24.25-.62.49-.74.87a6.24,6.24,0,0,0-1.61,4.83,31.19,31.19,0,0,1-.13,4.83,1.62,1.62,0,0,1-.12.74c-.25,1.49-.87,2-2.36,2.11a6.83,6.83,0,0,1-2.23-.25,1.19,1.19,0,0,1-.86-1.11,70.21,70.21,0,0,1,.37-10.29c.25-2.48.49-4.83.74-7.31l.38-2.6a1.55,1.55,0,0,0-.13-.75,42.2,42.2,0,0,0-2.6-5.32,28.67,28.67,0,0,1-2.36-5.33,1.28,1.28,0,0,0-.74-.87,45.9,45.9,0,0,1-10.41-8.55,58.69,58.69,0,0,1-6.94-8.54A25.66,25.66,0,0,1,24.61,39c-.49-2.48-.62-5.09-.87-7.56-.12-.87.25-1.37.87-1.12.25.13.37.25.62.38a28.18,28.18,0,0,0,6.32,4.21,27.2,27.2,0,0,1,7.68,6.94,49.25,49.25,0,0,1,4,5.95,18.91,18.91,0,0,1,2,5.82c.37,1.61.87,3.1,1.37,4.71a18.35,18.35,0,0,1,.86,6.81,3.94,3.94,0,0,0,.25,1.74,59.89,59.89,0,0,0,2.85,5.57,6.85,6.85,0,0,0,1.24,1.86,27.54,27.54,0,0,0,.49-3.22c.25-1.37.13-2.85.38-4.34.24-1.73.49-3.34.74-5.08.13-1.24.25-2.35.37-3.59l.38-4.34a.48.48,0,0,0-.38-.62A3.73,3.73,0,0,1,52,51.71a5.81,5.81,0,0,1-1.36-3.09A5.72,5.72,0,0,1,52,43.79a4.85,4.85,0,0,1,5.7-.5A5,5,0,0,1,59.56,45a5.36,5.36,0,0,1,.75,3.34,5.05,5.05,0,0,1-1.37,4,3.06,3.06,0,0,1-1.36.87c-.25.13-.38.25-.38.49A28.61,28.61,0,0,1,57,58.28l-.38,3.34c.87-.62,1.62-1.11,2.24-1.61a8.17,8.17,0,0,1,1.36-.87,2.16,2.16,0,0,0,.87-1c.86-2.35,1.86-4.46,2.85-6.81A20.6,20.6,0,0,1,65.63,48a4.67,4.67,0,0,1,.75-.86A33.72,33.72,0,0,1,70.47,44c.12-.13.24-.13.24-.25a13.37,13.37,0,0,0-2.6,1.61c-.62.5-1.37,1-2,1.49s-1,.25-1.11-.37A17.38,17.38,0,0,0,63.4,43a8.41,8.41,0,0,0-4.09-2.85,10.19,10.19,0,0,0-2.11-.5A12,12,0,0,0,50,40.81a11.88,11.88,0,0,0-1.86.86.53.53,0,0,1-.62,0,4.65,4.65,0,0,0-1.37-.62c-.24-.12-.37-.24-.37-.49a42.33,42.33,0,0,0-2.6-5.33l-.13-.13c-.62-.86-.62-1,.37-1.48a24.69,24.69,0,0,1,7.07-2.85,18.23,18.23,0,0,1,11.77,1,21.31,21.31,0,0,1,9,7.43,5.72,5.72,0,0,1,.62,2.48c0,.5.13,1,.13,1.37.24-.13.24-.25.24-.38a7.33,7.33,0,0,0-.12-1.61.82.82,0,0,1,.37-1l1.73-1.37c.38-.37.5-.24.62.25s.38.75.5,1.11c.24.75.62.87,1.24.25.12-.12.12-.25.24-.25.38-.49.5-.86.87-1M38.25,49.87C33.91,44.05,29.08,38.47,25.37,32a107.46,107.46,0,0,0,8.3,12.89c-.75-.5-1.49-1.24-2.23-1.62a10.86,10.86,0,0,1-3-2.35A4.2,4.2,0,0,0,27,39.47a11.44,11.44,0,0,0,3,3.47,36.9,36.9,0,0,1,4.34,3.34,5.32,5.32,0,0,1,1.36,1.49c.13.24.37.49.5.74a60,60,0,0,1,4.08,5.7c.38.62.75,1.24,1.12,2A17.07,17.07,0,0,0,37.26,53a14.25,14.25,0,0,1-3.84-2.72c-.25-.25-.5-.37-.75-.62,0,.13,0,.25.13.25A13.09,13.09,0,0,0,37,53.47,13.93,13.93,0,0,1,40.1,55.7a8.85,8.85,0,0,0,1.62,1.36,1,1,0,0,1,.49.5c.37.86.87,1.73,1.24,2.48.62,1,1.24,2.1,1.73,3.09.13.13.13.38.37.25s0-.25-.12-.37c-.62-1.12-1.11-2.23-1.73-3.35A59.9,59.9,0,0,0,40,53a6.07,6.07,0,0,1-1.11-2.23,39.79,39.79,0,0,1-1.12-4.21,21.88,21.88,0,0,0-3.1-7.19c0-.12-.12-.24-.37-.24a29.61,29.61,0,0,1,4,10.78m47.57-7.69a1,1,0,0,0-.62.24,17.63,17.63,0,0,1-5.45,2.85c-1.73.62-3.71.25-5.45.87l.25-.25c2.23-1.73,4.46-3.34,6.81-4.83a36.9,36.9,0,0,0,5.58-4.33A35.38,35.38,0,0,0,91,32.27l1.49-1.86-.13-.12c-3.84,4.71-8,8.8-13.5,11.52,0-.12.12-.12.12-.24a17.58,17.58,0,0,1,3.1-3.6,15,15,0,0,0,2.23-2.72,1.72,1.72,0,0,0,.25-.87,17.76,17.76,0,0,1-2.73,3.35,15.07,15.07,0,0,0-3.59,4.33c-.12.38-.49.62-.74.87a42.24,42.24,0,0,0-4.71,3.72c-.62.49-1.12,1-1.86,1.61a36.13,36.13,0,0,1,2.72-7.19A21.62,21.62,0,0,0,71,47a4.21,4.21,0,0,0-.25,1.24,1.88,1.88,0,0,1-.24.75,24,24,0,0,0-2.73,3.34,28.22,28.22,0,0,1-4.34,5.08,1.09,1.09,0,0,0-.37.75,3.32,3.32,0,0,0,1-.87,24.7,24.7,0,0,0,3-3.47,30.12,30.12,0,0,1,4.84-5.58,8.71,8.71,0,0,1,3.84-2c.74-.13,1.61,0,2.35-.13a15.07,15.07,0,0,0,4.58-1.48,10.75,10.75,0,0,0,3.23-2.48M65.14,74.28A12.47,12.47,0,0,1,66.87,68c-.12,0-.12,0-.24.12s-.13.13-.13.25a9.76,9.76,0,0,0-1.61,4.83,5.48,5.48,0,0,1-1.11,3.35c-.13.24-.38.37-.5.62a27.49,27.49,0,0,1-1.73,2.23A21.94,21.94,0,0,1,62,74.53a.42.42,0,0,0-.12.24,11.19,11.19,0,0,0-.62,3.47,4.4,4.4,0,0,1-1,2.85,4.54,4.54,0,0,0-.87,1.24,6.12,6.12,0,0,0-.75,1.49c.13,0,.13,0,.13-.13.74-1.61,2.1-2.72,3-4.09l.37-.37a27.15,27.15,0,0,1,2.61-1.36,7.79,7.79,0,0,0,3.34-3,.36.36,0,0,0,0-.49A8.14,8.14,0,0,1,63,78.12c.62-.75,1.11-1.49,1.61-2.11a27.94,27.94,0,0,0,3.35-6c.74-1.61,1.61-3.22,2.47-4.83A3.7,3.7,0,0,0,71.08,64c-.24.25-.49.62-.74.87a57.34,57.34,0,0,0-3.84,7.31c-.5.74-.87,1.36-1.37,2.1m-18-34.06c.74.37.74.37,1.36,0,.25-.13.62-.25.87-.37a14.94,14.94,0,0,1,8.05-1.24,8.15,8.15,0,0,1,3.35,1.11A11.73,11.73,0,0,1,62.9,41a2.35,2.35,0,0,0-1.11-1.11,11.19,11.19,0,0,0-7.93-2,13.51,13.51,0,0,0-4.33,1.24c-.62.25-1.37.62-2.36,1.12m19.2,5.58c.13,0,.13,0,.25-.13a33.69,33.69,0,0,1,4.34-3,.68.68,0,0,0,.37-.62V40.34a20,20,0,0,0-1.73,1.11c-1.11.87-2.11,1.86-3.1,2.72-.12.13-.25.25-.25.38a2,2,0,0,0,.13,1.24M56.09,52a1.15,1.15,0,0,1,.87.37c.25.25.37.13.62,0a4.34,4.34,0,0,0,1.73-2c0-.13.13-.13,0-.37a4.3,4.3,0,0,1-3.22,2m-.74.13a9.4,9.4,0,0,1-2.48-.62,2.55,2.55,0,0,0,1.24,1c.62.13.87-.37,1.24-.37"/><path class="cls-2" d="M87.44,32.64l-.49.25c-.87.13-.87.13-1.24-.74a33.3,33.3,0,0,0-3.84-5.58,34.12,34.12,0,0,0-10.66-8,29.8,29.8,0,0,0-9.67-2.85,51.85,51.85,0,0,0-8.79-.5,28.79,28.79,0,0,0-5.45,1A25.23,25.23,0,0,0,42,18a12.74,12.74,0,0,0-2.48,1.49,1,1,0,0,1-.62.12,29.83,29.83,0,0,0-3.22-.49c-.25,0-.5-.13-.5-.37-.62-1.12-1.11-2.23-1.73-3.23a16.22,16.22,0,0,0-1.86-3.22.83.83,0,0,1,.13-1.24l.12-.12A44.4,44.4,0,0,1,44.58,5.51a28.78,28.78,0,0,1,6.56-1.12,23.28,23.28,0,0,1,4.09,0,48.83,48.83,0,0,1,8.3,1,53.27,53.27,0,0,1,11.53,4A43.05,43.05,0,0,1,87.58,19a44,44,0,0,1,3.71,4.34,3.63,3.63,0,0,1,.5,1.24,27.7,27.7,0,0,1,.12,4.46,1.25,1.25,0,0,1-.62,1,41,41,0,0,0-3.84,2.6M36.4,18.4a8.31,8.31,0,0,1,2.47.25.72.72,0,0,0,.5-.13,42.75,42.75,0,0,1,6-2.6,38.09,38.09,0,0,1,6.56-1.61,37,37,0,0,1,7.44,0A33.48,33.48,0,0,1,84.1,27.93a24,24,0,0,0,1.61,2.24,4.18,4.18,0,0,0-.62-1.74,15.48,15.48,0,0,0-1.61-2.35,33.67,33.67,0,0,0-8-7.56,34.78,34.78,0,0,0-5.09-2.85,27.35,27.35,0,0,0-8.05-2.48,53.38,53.38,0,0,0-8.92-.49,41.8,41.8,0,0,0-5.45.49,39.12,39.12,0,0,0-6.44,2.11,31.2,31.2,0,0,0-5.08,3.09M90.78,25a.94.94,0,0,0-.49.24c-1.37,1.12-2.85,2.24-4.21,3.23-.25.12-.13.25-.13.49a8.22,8.22,0,0,1,.75,2.48c.12.37.24.37.49.13,1.11-.75,2.11-1.49,3.23-2.24a.68.68,0,0,0,.37-.61V25"/><path class="cls-2" d="M77.77,39.09c-.25.13-.5.5-.75.62s-.37.13-.62.25-.62,0-.62-.25a22.41,22.41,0,0,0-5.33-6.57,18.39,18.39,0,0,0-9.78-4.58,27.14,27.14,0,0,0-10.91.37,14.32,14.32,0,0,0-5.45,2.23.43.43,0,0,1-.37.13,18.73,18.73,0,0,0-2.48-.62.71.71,0,0,1-.62-.37,25.68,25.68,0,0,0-2-4.21,19.26,19.26,0,0,0-1.49-2.73c-.24-.37-.12-.49.25-.74,2.23-1.12,4.34-2.23,6.57-3.1a31.35,31.35,0,0,1,18.34-1.73,22.93,22.93,0,0,1,8.92,3.34,31.62,31.62,0,0,1,6.69,5.45c1.11,1.24,2.35,2.6,3.34,4a4,4,0,0,1,1,2.48,9.6,9.6,0,0,1,0,2.73,1.28,1.28,0,0,1-.74.86A19.43,19.43,0,0,0,78,39.09c-.25-.12-.25-.12-.25,0M42.21,29.68c.75.12,1.24.49,1.86.12a22.39,22.39,0,0,1,6.82-2.23,28.5,28.5,0,0,1,7.92-.37,21,21,0,0,1,15.87,9.17,1.77,1.77,0,0,1,.37.49c.12.13.24.37.49.37a11.59,11.59,0,0,0-1.48-2.72,51.66,51.66,0,0,0-3.85-3.84A19.4,19.4,0,0,0,59.68,26a25.84,25.84,0,0,0-9.29.37,21.65,21.65,0,0,0-5.7,1.86c-.87.49-1.74,1-2.48,1.48M81.74,32q-2.61,1.85-4.83,3.71c-.75.62-1.12,1.24-.75,2.11a1.47,1.47,0,0,1,.13.74c0,.25.12.25.37.13a3.11,3.11,0,0,0,.62-.49,45.13,45.13,0,0,0,4-2.61.68.68,0,0,0,.38-.62,12.33,12.33,0,0,0,.12-3"/><g class="cls-3"><polygon class="cls-4" points="13.81 312.49 -38.41 261.31 174.1 53 226.32 104.18 13.81 312.49"/></g></svg>