<?xml version="1.0" encoding="utf-8"?>
<!-- Generator: Adobe Illustrator 26.0.3, SVG Export Plug-In . SVG Version: 6.00 Build 0)  -->
<svg version="1.1" id="Layer_1" xmlns="http://www.w3.org/2000/svg" xmlns:xlink="http://www.w3.org/1999/xlink" x="0px" y="0px"
	 viewBox="0 0 745.45 374.66" style="enable-background:new 0 0 745.45 374.66;" xml:space="preserve">
<style type="text/css">
	.st0{fill:#C8CEF5;}
	.st1{fill:#D1D6F7;}
	.st2{fill:#E4E6FA;}
	.st3{fill:#A4ADEF;}
	.st4{fill:#B6BDF2;}
	.st5{fill:#DADEF8;}
	.st6{fill:#BFC6F3;}
	.st7{fill:#4152C8;}
	.st8{fill:#485BDE;}
	.st9{fill:#EDEFFC;}
	.st10{fill:#3A49B2;}
	.st11{fill:#ADB5F0;}
	.st12{fill:#A6A6A6;}
	.st13{fill:none;stroke:#000000;stroke-width:0.0564;stroke-miterlimit:10;}
	.st14{fill:none;stroke:#0000FF;stroke-width:0.5642;stroke-miterlimit:10;}
	.st15{fill:#121738;}
	.st16{fill:#5163E0;}
	.st17{fill:none;}
</style>
<g>
	<g>
		<g>
			<polygon class="st0" points="152.99,240.57 134.39,212.99 147.13,222.97 			"/>
			<polygon class="st1" points="170.59,222.97 158.86,222.97 158.86,176.03 			"/>
			<polygon class="st0" points="170.6,181.9 170.6,222.97 158.86,176.03 			"/>
			<polygon class="st2" points="158.86,176.03 158.86,222.97 147.13,222.97 			"/>
			<polygon class="st3" points="183.12,213 164.73,240.57 170.6,222.97 			"/>
			<polygon class="st4" points="188.36,187.76 183.12,213 170.6,181.9 			"/>
			<polygon class="st4" points="201.53,170.29 195.91,193.81 188.36,187.76 			"/>
			<polygon class="st5" points="201.53,170.29 182.33,164.29 174.5,148.64 			"/>
			<polygon class="st0" points="158.86,176.03 158.86,176.03 172.04,169.43 174.51,148.64 			"/>
			<polygon class="st6" points="158.86,176.03 170.55,181.9 172.04,169.43 			"/>
			<polygon class="st1" points="172.04,169.43 182.28,164.3 182.29,164.29 174.51,148.64 			"/>
			<polygon class="st7" points="170.55,181.9 176.96,172.29 172.04,169.43 			"/>
			<polygon class="st8" points="172.04,169.43 176.96,172.29 182.28,164.3 			"/>
			<polygon class="st0" points="147.17,181.9 134.39,212.99 129.52,187.76 			"/>
			<polygon class="st5" points="129.52,187.76 121.87,193.88 116.18,170.27 			"/>
			<polygon class="st5" points="135.43,164.29 135.43,176.03 116.18,170.27 			"/>
			<polygon class="st9" points="143.21,148.64 135.43,164.29 116.18,170.27 			"/>
			<polygon class="st1" points="158.86,176.03 158.86,176.03 145.69,169.43 143.22,148.64 			"/>
			<polygon class="st0" points="158.86,176.03 147.17,181.9 145.69,169.43 			"/>
			<polygon class="st5" points="145.69,169.43 135.44,164.3 135.44,164.29 143.22,148.64 			"/>
			<polygon class="st10" points="147.17,181.9 140.76,172.29 145.69,169.43 			"/>
			<polygon class="st7" points="145.69,169.43 140.76,172.29 135.44,164.3 			"/>
			<polygon class="st5" points="158.86,176.03 147.13,222.97 147.17,181.9 			"/>
			<polygon class="st9" points="135.43,176.03 129.52,187.76 116.18,170.27 			"/>
			<polygon class="st0" points="201.53,170.29 182.33,176.03 182.33,164.29 			"/>
			<polygon class="st1" points="201.53,170.29 188.36,187.76 182.33,176.03 			"/>
			<polygon class="st1" points="147.17,181.9 147.13,222.97 134.39,212.99 			"/>
			<polygon class="st6" points="183.12,213 170.6,222.97 170.6,181.9 			"/>
			<polygon class="st5" points="147.17,181.9 129.52,187.76 135.43,176.03 			"/>
			<polygon class="st0" points="188.36,187.76 170.6,181.9 182.33,176.03 			"/>
			<polygon class="st11" points="170.6,222.97 164.73,240.57 161.22,237.08 			"/>
			<polygon class="st6" points="156.49,237.06 152.99,240.57 147.13,222.97 			"/>
			<polygon class="st4" points="164.73,240.57 152.99,240.57 156.49,237.06 161.22,237.08 			"/>
			<line class="st12" x1="158.86" y1="176.03" x2="158.87" y2="176.03"/>
			<line class="st13" x1="135.44" y1="164.29" x2="135.43" y2="164.29"/>
			<path class="st14" d="M205.77,93.88"/>
			<path class="st14" d="M111.92,93.88"/>
			<polygon class="st8" points="140.76,172.29 135.43,176.03 135.43,164.29 			"/>
			<polygon class="st7" points="147.16,181.9 135.43,176.03 140.76,172.29 			"/>
			<polygon class="st10" points="182.33,176.03 170.59,181.9 177,172.29 			"/>
			<polygon class="st7" points="182.33,164.29 182.33,176.03 177,172.29 			"/>
			<polygon class="st10" points="223.36,187.76 210.97,177.85 201.53,170.29 212.8,166.62 			"/>
			<polygon class="st10" points="223.41,170.16 212.8,166.62 211.6,158.35 			"/>
			<polygon class="st15" points="94.24,170.24 104.85,166.7 106.05,158.43 			"/>
			<polygon class="st10" points="217.4,152.55 211.6,158.35 201.53,170.29 207.57,149.28 			"/>
			<polygon class="st7" points="211.68,134.95 207.57,149.28 201.53,170.29 174.5,148.64 			"/>
			<polygon class="st8" points="211.68,134.95 174.5,148.64 189.46,122.45 205.77,93.88 			"/>
			<polygon class="st10" points="189.46,122.45 174.5,148.64 158.86,117.35 			"/>
			<polygon class="st7" points="158.86,117.35 158.86,176.03 143.21,148.64 			"/>
			<polygon class="st8" points="158.86,117.35 143.21,148.64 128.25,122.45 			"/>
			<polygon class="st16" points="143.21,148.64 106.01,134.95 111.92,93.88 128.25,122.45 			"/>
			<polygon class="st10" points="143.21,148.64 116.18,170.27 110.12,149.24 106.01,134.95 			"/>
			<polygon class="st7" points="116.18,170.27 106.05,158.43 100.18,152.55 110.12,149.24 			"/>
			<polygon class="st7" points="106.05,158.43 104.88,166.64 94.32,170.16 			"/>
			<polygon class="st7" points="116.18,170.27 106.75,177.82 94.32,187.76 104.88,166.64 			"/>
			<polygon class="st7" points="121.87,193.88 100.18,211.23 106.75,177.82 			"/>
			<polygon class="st8" points="134.61,213 111.92,228.87 100.18,211.23 			"/>
			<polygon class="st10" points="135.39,246.5 111.92,228.87 134.61,213 			"/>
			<polygon class="st10" points="183.11,213 205.8,228.87 217.53,211.23 			"/>
			<polygon class="st7" points="182.33,246.5 205.8,228.87 183.11,213 			"/>
			<polygon class="st8" points="158.86,222.97 156.49,237.06 147.13,222.97 			"/>
			<polygon class="st10" points="170.6,222.97 161.22,237.08 158.86,222.97 			"/>
			<polygon class="st8" points="158.82,281.64 135.39,246.5 152.99,240.57 			"/>
			<polygon class="st10" points="182.33,246.5 158.82,281.64 164.73,240.57 			"/>
			<polygon class="st8" points="183.12,212.99 182.33,246.5 164.73,240.57 			"/>
			<polygon class="st7" points="152.99,240.57 135.39,246.5 134.61,213 			"/>
			<polygon class="st10" points="134.61,213 100.18,211.23 121.87,193.88 129.53,187.76 134.6,212.99 			"/>
			<polygon class="st7" points="217.53,211.23 183.12,212.99 188.36,187.76 195.91,193.81 			"/>
			<polygon class="st7" points="164.73,240.57 158.82,281.64 152.99,240.57 			"/>
			<polygon class="st7" points="161.22,237.08 156.49,237.06 158.86,222.97 			"/>
			<polygon class="st7" points="210.97,177.85 195.91,193.81 201.53,170.29 			"/>
			<polygon class="st10" points="121.87,193.88 106.75,177.82 116.18,170.27 			"/>
			<polygon class="st7" points="212.8,166.62 201.53,170.29 211.6,158.35 			"/>
			<polygon class="st10" points="116.18,170.27 104.88,166.64 106.05,158.43 			"/>
			<polygon class="st7" points="174.5,148.64 158.86,176.03 158.86,117.35 			"/>
			<path class="st10" d="M210.97,177.85l-15.06,15.96l21.62,17.43L210.97,177.85z"/>
		</g>
		<g>
			<g>
				<path class="st16" d="M306.4,216.39h-14.58c-4.63-20.45-9.84-40.77-15.27-58.79h13.42c3.82,12.94,6.6,26.68,9.6,41.81
					c3.12-11.78,7.87-31.3,9.84-41.81h11.92c3.12,11.44,6.94,29.22,9.26,41.81c4.28-14.67,7.06-27.14,9.84-41.81h12.84
					c-4.28,19.06-10.07,40.2-16.2,58.79h-14.7c-1.85-11.9-4.97-28.65-7.17-38.23C312.88,190.4,309.29,205.76,306.4,216.39z"/>
				<path class="st16" d="M358.82,186.7c0-24.02,9.37-30.84,28-30.84c18.86,0,28.23,6.82,28.23,30.84c0,24.14-9.26,31.3-28.23,31.3
					C368.08,218.01,358.82,210.84,358.82,186.7z M373.63,186.93c0,16.29,3.12,19.52,13.19,19.52c10.3,0,13.42-3.23,13.42-19.52
					c0-16.86-3.12-19.52-13.42-19.52C376.76,167.41,373.63,170.07,373.63,186.93z"/>
				<path class="st16" d="M424.66,132.99h29.51v70.81h15.27v12.59h-44.78V203.8h15.16v-58.22h-15.16V132.99z"/>
				<path class="st16" d="M517.35,157.6h14.58c-5.67,19.06-13.31,39.73-21.17,58.79h-17.7c-5.79-20.45-12.5-41.12-19.79-58.79h14.93
					c5.21,13.17,10.41,29.22,14.58,44.35C508.32,187.28,513.53,172.27,517.35,157.6z"/>
				<path class="st16" d="M546.16,157.6h29.51v46.2h15.27v12.59h-44.78V203.8h15.16v-33.61h-15.16V157.6z M576.83,140.15
					c0,6.82-1.97,7.97-8.22,7.97c-6.36,0-8.33-1.16-8.33-7.97c0-6.12,1.97-7.05,8.33-7.05
					C574.86,133.11,576.83,134.03,576.83,140.15z"/>
				<path class="st16" d="M652.27,215c-4.63,1.85-12.38,3-17.93,3c-17.94,0-29.16-7.16-29.16-31.3c0-24.02,11.34-30.84,29.16-30.84
					c5.67,0,13.54,1.15,17.93,2.77l-3.24,12.24c-3.7-1.39-8.91-2.54-13.65-2.54c-10.41,0-15.39,2.31-15.39,18.6
					c0,15.59,4.98,18.6,15.39,18.6c4.98,0,9.95-1.27,13.65-2.77L652.27,215z"/>
			</g>
		</g>
	</g>
	<rect x="0" y="0" class="st17" width="745.54" height="375.53"/>
</g>
</svg>
